<svg width="24" height="24" viewBox="0 0 24 24" fill="none" xmlns="http://www.w3.org/2000/svg">
<mask id="mask0_1_267" style="mask-type:alpha" maskUnits="userSpaceOnUse" x="2" y="2" width="20" height="20">
<path d="M12 2C17.5228 2 22 6.47715 22 12C22 17.5228 17.5228 22 12 22C6.47715 22 2 17.5228 2 12C2 6.47715 6.47715 2 12 2ZM7.50254 12.9101L3.86819 12.9097C4.24396 16.3066 6.69929 19.0766 9.9328 19.9184C8.55025 17.8394 7.7106 15.4337 7.50254 12.9101ZM20.1318 12.9097L16.4999 12.9098C16.2959 15.4214 15.4553 17.8323 14.0678 19.918C17.3012 19.0761 19.7561 16.3063 20.1318 12.9097ZM14.6774 12.9094L9.32514 12.9097C9.5536 15.376 10.4822 17.7257 12 19.6811C13.5236 17.7186 14.4535 15.3614 14.6774 12.9094ZM9.93221 4.08204L9.8993 4.09037C6.68205 4.9426 4.24223 7.70563 3.86809 11.0912L7.50007 11.0911C7.70386 8.57918 8.54451 6.16799 9.93221 4.08204ZM12 4.31888C10.4762 6.28164 9.54628 8.63914 9.32247 11.0915L14.6749 11.0912C14.4466 8.62457 13.5179 6.27454 12 4.31888ZM14.0672 4.08158L14.2391 4.34603C15.5195 6.36373 16.2984 8.6732 16.4975 11.0909L20.1319 11.0912C19.7565 7.69388 17.301 4.92344 14.0672 4.08158Z" fill="#155EFF"/>
</mask>
<g mask="url(#mask0_1_267)">
<path d="M22.909 1.09082H1.09082V22.909H22.909V1.09082Z" fill="#155EFF"/>
</g>
</svg>
