<svg width="668" height="298" viewBox="0 0 668 298" fill="none" xmlns="http://www.w3.org/2000/svg">
<path d="M13 128.445L2.81818 128.445L2.81818 122.061L4.14062 122.061L4.14062 126.909L7.2429 126.909L7.2429 122.394L8.56037 122.394L8.56037 126.909L11.6776 126.909L11.6776 122.002L13 122.002L13 128.445ZM13 120.129L5.36364 120.129L5.36364 118.692L6.5767 118.692L6.5767 118.612C6.16572 118.473 5.84257 118.228 5.60724 117.877C5.36861 117.522 5.24929 117.121 5.24929 116.673C5.24929 116.577 5.2526 116.466 5.25923 116.34C5.26586 116.214 5.27415 116.115 5.28409 116.042L6.70597 116.042C6.68939 116.102 6.67116 116.208 6.65128 116.36C6.62808 116.509 6.61648 116.662 6.61648 116.818C6.61648 117.345 6.77888 117.78 7.10369 118.125C7.42519 118.47 7.83617 118.642 8.33665 118.642L13 118.642L13 120.129ZM13 114.756L5.36364 114.756L5.36364 113.319L6.5767 113.319L6.5767 113.239C6.16572 113.1 5.84257 112.855 5.60724 112.503C5.36861 112.152 5.24929 111.751 5.24929 111.3C5.24929 111.092 5.27415 110.904 5.32386 110.739C5.37358 110.573 5.44152 110.427 5.5277 110.301L6.7706 110.778C6.72419 110.868 6.68774 110.969 6.66122 111.082C6.63471 111.194 6.62145 111.324 6.62145 111.469C6.62145 111.983 6.78385 112.412 7.10866 112.757C7.43016 113.098 7.83949 113.269 8.33665 113.269L13 113.269L13 114.756ZM13.1541 106.234C13.1541 106.95 12.9901 107.575 12.6619 108.109C12.3338 108.642 11.8748 109.056 11.2848 109.351C10.6915 109.646 10.0021 109.794 9.21662 109.794C8.42448 109.794 7.73177 109.646 7.13849 109.351C6.54522 109.056 6.08452 108.642 5.75639 108.109C5.42827 107.575 5.2642 106.95 5.2642 106.234C5.2642 105.515 5.42827 104.89 5.75639 104.36C6.08452 103.826 6.54522 103.412 7.13849 103.117C7.73177 102.822 8.42448 102.675 9.21662 102.675C10.0021 102.675 10.6915 102.822 11.2848 103.117C11.8748 103.412 12.3338 103.826 12.6619 104.36C12.9901 104.89 13.1541 105.515 13.1541 106.234ZM11.9062 106.229C11.9062 105.762 11.7836 105.378 11.5384 105.076C11.2931 104.771 10.9666 104.546 10.5589 104.4C10.148 104.251 9.69886 104.176 9.21165 104.176C8.72443 104.176 8.27533 104.251 7.86435 104.4C7.45336 104.546 7.12524 104.771 6.87997 105.076C6.63139 105.378 6.5071 105.762 6.5071 106.229C6.5071 106.697 6.63139 107.083 6.87997 107.388C7.12524 107.693 7.45336 107.92 7.86435 108.069C8.27533 108.218 8.72443 108.293 9.21165 108.293C9.69886 108.293 10.148 108.218 10.5589 108.069C10.9666 107.92 11.2931 107.693 11.5384 107.388C11.7836 107.083 11.9062 106.697 11.9062 106.229ZM13 101.015L5.36363 101.015L5.36363 99.5786L6.5767 99.5786L6.5767 99.499C6.16572 99.3598 5.84256 99.1146 5.60724 98.7632C5.36861 98.4119 5.24929 98.0109 5.24929 97.5601C5.24929 97.3513 5.27415 97.164 5.32386 96.9983C5.37358 96.8326 5.44152 96.6868 5.5277 96.5608L6.77059 97.0381C6.72419 97.1276 6.68774 97.2287 6.66122 97.3414C6.6347 97.454 6.62145 97.5833 6.62145 97.7291C6.62145 98.2429 6.78385 98.6721 7.10866 99.0168C7.43016 99.3582 7.83949 99.5289 8.33665 99.5289L13 99.5289L13 101.015Z" fill="white"/>
<path d="M12.2543 83.1023L9.64418 83.1023L9.64418 85.7173L8.30682 85.7173L8.30682 83.1023L5.69176 83.1023L5.69176 81.7649L8.30682 81.7649L8.30682 79.1548L9.64418 79.1548L9.64418 81.7649L12.2543 81.7649L12.2543 83.1023Z" fill="white"/>
<path d="M8.05327 139.982L9.34091 139.982L9.34091 144.496L8.05327 144.496L8.05327 139.982Z" fill="white"/>
<path d="M39.487 116.169C38.3104 116.166 37.394 115.705 36.7377 114.787C36.0815 113.869 35.7534 112.578 35.7534 110.914C35.7567 109.257 36.0881 107.971 36.7477 107.056C37.4073 106.138 38.3204 105.679 39.487 105.679C40.6537 105.679 41.5668 106.138 42.2264 107.056C42.8859 107.971 43.2157 109.257 43.2157 110.914C43.2157 112.581 42.8876 113.874 42.2314 114.792C41.5784 115.71 40.6636 116.169 39.487 116.169ZM39.487 114.842C40.1731 114.842 40.7117 114.505 41.1028 113.832C41.4939 113.16 41.6895 112.187 41.6895 110.914C41.6895 109.645 41.4922 108.672 41.0978 107.996C40.7067 107.32 40.1698 106.982 39.487 106.982C38.801 106.982 38.2624 107.32 37.8713 107.996C37.4802 108.672 37.283 109.645 37.2797 110.914C37.2797 112.187 37.4752 113.16 37.8663 113.832C38.2574 114.505 38.7976 114.842 39.487 114.842Z" fill="white"/>
<path d="M42.2289 84.8182V95H40.6877V86.8913H40.6032C40.5203 87.0405 40.29 87.2045 39.9121 87.3835C39.5343 87.5592 39.057 87.647 38.4803 87.647V86.3842C38.8515 86.3842 39.178 86.3179 39.4597 86.1854C39.7447 86.0528 39.9834 85.8937 40.1756 85.7081C40.3678 85.5192 40.5153 85.3419 40.6181 85.1761C40.7241 85.0071 40.7838 84.8878 40.7971 84.8182H42.2289Z" fill="white"/>
<path d="M42.2289 126.818V137H40.6877V128.891H40.6032C40.5203 129.04 40.29 129.205 39.9121 129.384C39.5343 129.559 39.057 129.647 38.4803 129.647V128.384C38.8515 128.384 39.178 128.318 39.4597 128.185C39.7447 128.053 39.9834 127.894 40.1756 127.708C40.3678 127.519 40.5153 127.342 40.6181 127.176C40.7241 127.007 40.7838 126.888 40.7971 126.818H42.2289Z" fill="white"/>
<path d="M36.3935 74V72.8864L39.8388 69.3168C40.2034 68.929 40.5066 68.5893 40.7486 68.2976C40.9905 68.0026 41.1712 67.7225 41.2905 67.4574C41.4098 67.1922 41.4695 66.9105 41.4695 66.6122C41.4695 66.1051 41.2955 65.7041 40.9474 65.4091C40.5994 65.1108 40.1669 64.9616 39.6499 64.9616C39.0997 64.9616 38.6605 65.1274 38.3324 65.4588C38.0076 65.7869 37.8468 66.2244 37.8501 66.7713H36.3835C36.3835 66.1515 36.526 65.6096 36.8111 65.1456C37.0961 64.6816 37.4872 64.322 37.9844 64.0668C38.4815 63.8082 39.0466 63.679 39.6797 63.679C40.3194 63.679 40.8828 63.8066 41.37 64.0618C41.8606 64.3137 42.2434 64.6584 42.5185 65.0959C42.7936 65.5301 42.9311 66.0206 42.9311 66.5675C42.9311 66.9453 42.8598 67.3149 42.7173 67.6761C42.5781 68.0374 42.3345 68.4401 41.9865 68.8842C41.6418 69.325 41.1579 69.8603 40.5348 70.4901L38.5114 72.608V72.6825H43.0952V74H36.3935Z" fill="white"/>
<path d="M36.3935 157V155.886L39.8388 152.317C40.2034 151.929 40.5066 151.589 40.7486 151.298C40.9905 151.003 41.1712 150.723 41.2905 150.457C41.4098 150.192 41.4695 149.911 41.4695 149.612C41.4695 149.105 41.2955 148.704 40.9474 148.409C40.5994 148.111 40.1669 147.962 39.6499 147.962C39.0997 147.962 38.6605 148.127 38.3324 148.459C38.0076 148.787 37.8468 149.224 37.8501 149.771H36.3835C36.3835 149.152 36.526 148.61 36.8111 148.146C37.0961 147.682 37.4872 147.322 37.9844 147.067C38.4815 146.808 39.0466 146.679 39.6797 146.679C40.3194 146.679 40.8828 146.807 41.37 147.062C41.8606 147.314 42.2434 147.658 42.5185 148.096C42.7936 148.53 42.9311 149.021 42.9311 149.567C42.9311 149.945 42.8598 150.315 42.7173 150.676C42.5781 151.037 42.3345 151.44 41.9865 151.884C41.6418 152.325 41.1579 152.86 40.5348 153.49L38.5114 155.608V155.683H43.0952V157H36.3935Z" fill="white"/>
<path d="M39.5007 54.1392C38.8146 54.1392 38.2048 54.0215 37.6712 53.7862C37.1375 53.5509 36.715 53.2244 36.4034 52.8068C36.0952 52.3859 35.9295 51.8987 35.9062 51.3452H37.4673C37.4972 51.7959 37.7043 52.1539 38.0888 52.419C38.4732 52.6842 38.9406 52.8168 39.4908 52.8168C40.0907 52.8168 40.5829 52.6643 40.9673 52.3594C41.3551 52.0511 41.549 51.6501 41.549 51.1562C41.549 50.6425 41.3535 50.2249 40.9624 49.9034C40.5746 49.5786 40.0277 49.4162 39.3217 49.4162H38.4616V48.1634H39.3217C39.8852 48.1634 40.3459 48.0142 40.7038 47.7159C41.0618 47.4176 41.2391 47.0232 41.2358 46.5327C41.2391 46.062 41.0833 45.6825 40.7685 45.3942C40.4569 45.1058 40.041 44.9616 39.5206 44.9616C39.0201 44.9616 38.5793 45.0959 38.1982 45.3643C37.8203 45.6295 37.6231 45.9957 37.6065 46.4631H36.12C36.1366 45.9096 36.299 45.424 36.6072 45.0064C36.9188 44.5888 37.3298 44.264 37.8402 44.032C38.3506 43.7966 38.9174 43.679 39.5405 43.679C40.1934 43.679 40.7585 43.8066 41.2358 44.0618C41.7131 44.317 42.081 44.6551 42.3395 45.076C42.598 45.4936 42.7256 45.9527 42.7223 46.4531C42.7256 47.0232 42.5682 47.5071 42.25 47.9048C41.9318 48.3026 41.5059 48.5694 40.9723 48.7053V48.7848C41.6484 48.8875 42.1721 49.156 42.5433 49.5902C42.9179 50.0244 43.1035 50.563 43.1001 51.206C43.1035 51.7694 42.9493 52.2732 42.6378 52.7173C42.3262 53.1581 41.8987 53.5062 41.3551 53.7614C40.8116 54.0133 40.1934 54.1392 39.5007 54.1392Z" fill="white"/>
<path d="M39.5007 178.139C38.8146 178.139 38.2048 178.022 37.6712 177.786C37.1375 177.551 36.715 177.224 36.4034 176.807C36.0952 176.386 35.9295 175.899 35.9062 175.345H37.4673C37.4972 175.796 37.7043 176.154 38.0888 176.419C38.4732 176.684 38.9406 176.817 39.4908 176.817C40.0907 176.817 40.5829 176.664 40.9673 176.359C41.3551 176.051 41.549 175.65 41.549 175.156C41.549 174.643 41.3535 174.225 40.9624 173.903C40.5746 173.579 40.0277 173.416 39.3217 173.416H38.4616V172.163H39.3217C39.8852 172.163 40.3459 172.014 40.7038 171.716C41.0618 171.418 41.2391 171.023 41.2358 170.533C41.2391 170.062 41.0833 169.683 40.7685 169.394C40.4569 169.106 40.041 168.962 39.5206 168.962C39.0201 168.962 38.5793 169.096 38.1982 169.364C37.8203 169.629 37.6231 169.996 37.6065 170.463H36.12C36.1366 169.91 36.299 169.424 36.6072 169.006C36.9188 168.589 37.3298 168.264 37.8402 168.032C38.3506 167.797 38.9174 167.679 39.5405 167.679C40.1934 167.679 40.7585 167.807 41.2358 168.062C41.7131 168.317 42.081 168.655 42.3395 169.076C42.598 169.494 42.7256 169.953 42.7223 170.453C42.7256 171.023 42.5682 171.507 42.25 171.905C41.9318 172.303 41.5059 172.569 40.9723 172.705V172.785C41.6484 172.888 42.1721 173.156 42.5433 173.59C42.9179 174.024 43.1035 174.563 43.1001 175.206C43.1035 175.769 42.9493 176.273 42.6378 176.717C42.3262 177.158 41.8987 177.506 41.3551 177.761C40.8116 178.013 40.1934 178.139 39.5007 178.139Z" fill="white"/>
<path d="M35.6055 30.0114V28.7685L40.0053 21.8182H41.8995V28.7088H43.2468V30.0114H41.8995V32H40.4329V30.0114H35.6055ZM40.4428 28.7088V23.6477H40.3633L37.2163 28.6293V28.7088H40.4428Z" fill="white"/>
<path d="M35.6055 197.011V195.768L40.0053 188.818H41.8995V195.709H43.2468V197.011H41.8995V199H40.4329V197.011H35.6055ZM40.4428 195.709V190.648H40.3633L37.2163 195.629V195.709H40.4428Z" fill="white"/>
<path d="M39.6586 11.1392C39.0355 11.1392 38.4753 11.0199 37.9782 10.7812C37.4843 10.5393 37.0899 10.2079 36.7949 9.78693C36.4999 9.366 36.3425 8.88542 36.3226 8.34517H37.8141C37.8539 8.78267 38.0478 9.14228 38.3958 9.42401C38.7471 9.70573 39.168 9.84659 39.6586 9.84659C40.0497 9.84659 40.396 9.7571 40.6976 9.57812C41.0025 9.39583 41.2412 9.1456 41.4135 8.82741C41.5892 8.50923 41.677 8.14631 41.677 7.73864C41.677 7.32434 41.5875 6.95644 41.4086 6.63494C41.2296 6.31013 40.9827 6.05492 40.6678 5.86932C40.3562 5.6804 39.9983 5.58428 39.5939 5.58097C39.2857 5.58097 38.9758 5.634 38.6642 5.74006C38.3527 5.84612 38.1008 5.98532 37.9086 6.15767L36.5016 5.94886L37.0733 0.818182H42.6713V2.13565H38.351L38.0279 4.98438H38.0875C38.2864 4.78883 38.5499 4.62808 38.878 4.50213C39.2095 4.37287 39.5641 4.30824 39.9419 4.30824C40.5617 4.30824 41.1136 4.45573 41.5975 4.75071C42.0847 5.04238 42.4675 5.44508 42.7459 5.95881C43.0276 6.46922 43.1668 7.05256 43.1635 7.70881C43.1668 8.36837 43.0177 8.95668 42.7161 9.47372C42.4178 9.99077 42.0035 10.3984 41.4732 10.6967C40.9462 10.9917 40.3413 11.1392 39.6586 11.1392Z" fill="white"/>
<path d="M39.6586 220.139C39.0355 220.139 38.4753 220.02 37.9782 219.781C37.4843 219.539 37.0899 219.208 36.7949 218.787C36.4999 218.366 36.3425 217.885 36.3226 217.345H37.8141C37.8539 217.783 38.0478 218.142 38.3958 218.424C38.7471 218.706 39.168 218.847 39.6586 218.847C40.0497 218.847 40.396 218.757 40.6976 218.578C41.0025 218.396 41.2412 218.146 41.4135 217.827C41.5892 217.509 41.677 217.146 41.677 216.739C41.677 216.324 41.5875 215.956 41.4086 215.635C41.2296 215.31 40.9827 215.055 40.6678 214.869C40.3562 214.68 39.9983 214.584 39.5939 214.581C39.2857 214.581 38.9758 214.634 38.6642 214.74C38.3527 214.846 38.1008 214.985 37.9086 215.158L36.5016 214.949L37.0733 209.818H42.6713V211.136H38.351L38.0279 213.984H38.0875C38.2864 213.789 38.5499 213.628 38.878 213.502C39.2095 213.373 39.5641 213.308 39.9419 213.308C40.5617 213.308 41.1136 213.456 41.5975 213.751C42.0847 214.042 42.4675 214.445 42.7459 214.959C43.0276 215.469 43.1668 216.053 43.1635 216.709C43.1668 217.368 43.0177 217.957 42.7161 218.474C42.4178 218.991 42.0035 219.398 41.4732 219.697C40.9462 219.992 40.3413 220.139 39.6586 220.139Z" fill="white"/>
<path d="M330.12 19.72H325.96V31H330.12C333.128 31 336.264 30.216 336.264 25.352C336.264 20.504 333.128 19.72 330.12 19.72ZM330.12 28.76H328.52V21.96H330.12C332.12 21.96 333.704 22.12 333.704 25.352C333.704 28.6 332.12 28.76 330.12 28.76ZM337.878 25.352C337.878 28.648 340.054 31.16 343.638 31.16C347.206 31.16 349.382 28.648 349.382 25.352C349.382 22.072 347.206 19.56 343.638 19.56C340.054 19.56 337.878 22.072 337.878 25.352ZM340.438 25.352C340.438 23.192 341.51 21.8 343.638 21.8C345.766 21.8 346.822 23.192 346.822 25.352C346.822 27.528 345.766 28.92 343.638 28.92C341.51 28.92 340.438 27.528 340.438 25.352ZM351.335 31H353.895V21.96L353.415 20.36H354.055L355.863 31H360.823L362.631 20.36H363.271L362.791 21.96V31H365.351V19.72H360.311L358.663 30.36H358.023L356.375 19.72H351.335V31ZM374.98 21.96V19.72H367.3V21.96H369.86V28.76H367.3V31H374.98V28.76H372.42V21.96H374.98ZM376.929 31H379.489V21.96L379.009 20.36H379.649L383.057 31H388.097V19.72H385.537V28.76L386.017 30.36H385.377L381.969 19.72H376.929V31ZM389.878 25.352C389.878 28.648 392.054 31.16 395.638 31.16C399.206 31.16 401.382 28.648 401.382 25.352C401.382 22.072 399.206 19.56 395.638 19.56C392.054 19.56 389.878 22.072 389.878 25.352ZM392.438 25.352C392.438 23.192 393.51 21.8 395.638 21.8C397.766 21.8 398.822 23.192 398.822 25.352C398.822 27.528 397.766 28.92 395.638 28.92C393.51 28.92 392.438 27.528 392.438 25.352ZM408.792 25.72V27.64H420.792V25.72H408.792ZM436.911 31H439.503L436.239 19.72H430.959L427.711 31H430.303L431.311 27.384H435.887L436.911 31ZM431.935 25.144L433.279 20.36H433.919L435.263 25.144H431.935ZM441.132 31H443.692V27.032H448.108V31H450.668V27.4C450.668 26.52 450.188 26.04 449.308 26.04H447.66V25.4C449.02 25.24 450.524 24.728 450.524 22.872C450.524 20.344 448.188 19.72 445.5 19.72H441.132V31ZM443.692 24.792V21.96H445.5C447.02 21.96 447.964 21.96 447.964 23.384C447.964 24.792 447.02 24.792 445.5 24.792H443.692ZM456.933 19.72H452.773V31H456.933C459.941 31 463.077 30.216 463.077 25.352C463.077 20.504 459.941 19.72 456.933 19.72ZM456.933 28.76H455.333V21.96H456.933C458.933 21.96 460.517 22.12 460.517 25.352C460.517 28.6 458.933 28.76 456.933 28.76ZM469.999 24.888H472.559C472.559 22.728 473.423 21.8 475.359 21.8C476.815 21.8 477.295 22.52 477.295 23.24C477.295 25.736 471.311 26.36 470.159 26.52V31H479.855V28.76H472.399L470.799 29.24V28.6C476.079 27.624 479.855 27.144 479.855 23.352C479.855 20.888 477.999 19.56 475.327 19.56C472.367 19.56 469.999 21.096 469.999 24.888ZM481.156 26.856C481.156 29.928 483.492 31.16 486.468 31.16C489.444 31.16 491.428 29.848 491.428 26.744C491.428 24.152 489.828 22.76 487.844 22.76C486.26 22.76 485.076 23.56 484.468 25.32L483.94 25.016L484.42 23.576V21.96H490.532V19.72H481.86V24.536L484.74 26.2C485.38 25.384 486.132 25 487.076 25C488.276 25 488.868 25.608 488.868 26.808C488.868 28.216 488.276 28.92 486.468 28.92C484.468 28.92 483.716 28.216 483.716 26.856H481.156ZM498.679 31H501.239V27.032H505.655V31H508.215V27.4C508.215 26.52 507.735 26.04 506.855 26.04H505.207V25.4C506.567 25.24 508.071 24.728 508.071 22.872C508.071 20.344 505.735 19.72 503.047 19.72H498.679V31ZM501.239 24.792V21.96H503.047C504.567 21.96 505.511 21.96 505.511 23.384C505.511 24.792 504.567 24.792 503.047 24.792H501.239ZM509.351 19.72L511.287 31H516.599L518.055 20.36H518.695L520.151 31H525.463L527.399 19.72H524.919L523.127 30.36H522.487L521.095 19.72H515.655L514.263 30.36H513.623L511.831 19.72H509.351Z" fill="white"/>
<path d="M552.071 289.909C552.071 290.847 551.919 291.674 551.614 292.39C551.312 293.103 550.898 293.681 550.371 294.125L551.743 295.915H550.172L549.302 294.786C548.745 295.022 548.141 295.139 547.488 295.139C546.606 295.139 545.819 294.93 545.126 294.513C544.437 294.092 543.893 293.49 543.495 292.708C543.098 291.926 542.899 290.993 542.899 289.909C542.899 288.822 543.098 287.889 543.495 287.11C543.893 286.328 544.437 285.728 545.126 285.31C545.819 284.889 546.606 284.679 547.488 284.679C548.366 284.679 549.15 284.889 549.839 285.31C550.532 285.728 551.077 286.328 551.475 287.11C551.873 287.889 552.071 288.822 552.071 289.909ZM546.971 291.699H548.482L549.461 292.977C549.799 292.658 550.065 292.242 550.257 291.729C550.452 291.212 550.55 290.605 550.55 289.909C550.55 289.08 550.416 288.383 550.147 287.816C549.882 287.246 549.518 286.815 549.054 286.523C548.593 286.228 548.071 286.081 547.488 286.081C546.904 286.081 546.381 286.228 545.917 286.523C545.456 286.815 545.091 287.246 544.823 287.816C544.558 288.383 544.425 289.08 544.425 289.909C544.425 290.734 544.558 291.432 544.823 292.002C545.091 292.572 545.456 293.005 545.917 293.3C546.381 293.591 546.904 293.737 547.488 293.737C547.816 293.737 548.126 293.691 548.417 293.598L546.971 291.699ZM557.392 295.139C556.706 295.139 556.096 295.022 555.563 294.786C555.029 294.551 554.607 294.224 554.295 293.807C553.987 293.386 553.821 292.899 553.798 292.345H555.359C555.389 292.796 555.596 293.154 555.98 293.419C556.365 293.684 556.832 293.817 557.382 293.817C557.982 293.817 558.474 293.664 558.859 293.359C559.247 293.051 559.441 292.65 559.441 292.156C559.441 291.643 559.245 291.225 558.854 290.903C558.466 290.579 557.919 290.416 557.213 290.416H556.353V289.163H557.213C557.777 289.163 558.237 289.014 558.595 288.716C558.953 288.418 559.131 288.023 559.127 287.533C559.131 287.062 558.975 286.683 558.66 286.394C558.349 286.106 557.933 285.962 557.412 285.962C556.912 285.962 556.471 286.096 556.09 286.364C555.712 286.629 555.515 286.996 555.498 287.463H554.012C554.028 286.91 554.191 286.424 554.499 286.006C554.81 285.589 555.221 285.264 555.732 285.032C556.242 284.797 556.809 284.679 557.432 284.679C558.085 284.679 558.65 284.807 559.127 285.062C559.605 285.317 559.973 285.655 560.231 286.076C560.49 286.494 560.617 286.953 560.614 287.453C560.617 288.023 560.46 288.507 560.142 288.905C559.823 289.303 559.398 289.569 558.864 289.705V289.785C559.54 289.888 560.064 290.156 560.435 290.59C560.809 291.024 560.995 291.563 560.992 292.206C560.995 292.769 560.841 293.273 560.529 293.717C560.218 294.158 559.79 294.506 559.247 294.761C558.703 295.013 558.085 295.139 557.392 295.139Z" fill="white"/>
<path d="M658.003 289.909C658.003 290.847 657.851 291.674 657.546 292.39C657.244 293.103 656.83 293.681 656.303 294.125L657.675 295.915H656.104L655.234 294.786C654.677 295.022 654.072 295.139 653.419 295.139C652.538 295.139 651.751 294.93 651.058 294.513C650.368 294.092 649.825 293.49 649.427 292.708C649.029 291.926 648.831 290.993 648.831 289.909C648.831 288.822 649.029 287.889 649.427 287.11C649.825 286.328 650.368 285.728 651.058 285.31C651.751 284.889 652.538 284.679 653.419 284.679C654.298 284.679 655.081 284.889 655.771 285.31C656.464 285.728 657.009 286.328 657.407 287.11C657.804 287.889 658.003 288.822 658.003 289.909ZM652.902 291.699H654.414L655.393 292.977C655.731 292.658 655.996 292.242 656.188 291.729C656.384 291.212 656.482 290.605 656.482 289.909C656.482 289.08 656.348 288.383 656.079 287.816C655.814 287.246 655.449 286.815 654.985 286.523C654.525 286.228 654.003 286.081 653.419 286.081C652.836 286.081 652.312 286.228 651.848 286.523C651.388 286.815 651.023 287.246 650.755 287.816C650.489 288.383 650.357 289.08 650.357 289.909C650.357 290.734 650.489 291.432 650.755 292.002C651.023 292.572 651.388 293.005 651.848 293.3C652.312 293.591 652.836 293.737 653.419 293.737C653.747 293.737 654.057 293.691 654.349 293.598L652.902 291.699ZM659.565 293.011V291.768L663.965 284.818H665.859V291.709H667.207V293.011H665.859V295H664.393V293.011H659.565ZM664.403 291.709V286.648H664.323L661.176 291.629V291.709H664.403Z" fill="white"/>
<path d="M223.29 289.909C223.29 290.847 223.138 291.674 222.833 292.39C222.531 293.103 222.117 293.681 221.59 294.125L222.962 295.915H221.391L220.521 294.786C219.964 295.022 219.359 295.139 218.706 295.139C217.825 295.139 217.038 294.93 216.345 294.513C215.656 294.092 215.112 293.49 214.714 292.708C214.316 291.926 214.118 290.993 214.118 289.909C214.118 288.822 214.316 287.889 214.714 287.11C215.112 286.328 215.656 285.728 216.345 285.31C217.038 284.889 217.825 284.679 218.706 284.679C219.585 284.679 220.369 284.889 221.058 285.31C221.751 285.728 222.296 286.328 222.694 287.11C223.091 287.889 223.29 288.822 223.29 289.909ZM218.189 291.699H219.701L220.68 292.977C221.018 292.658 221.283 292.242 221.476 291.729C221.671 291.212 221.769 290.605 221.769 289.909C221.769 289.08 221.635 288.383 221.366 287.816C221.101 287.246 220.736 286.815 220.272 286.523C219.812 286.228 219.29 286.081 218.706 286.081C218.123 286.081 217.599 286.228 217.135 286.523C216.675 286.815 216.31 287.246 216.042 287.816C215.776 288.383 215.644 289.08 215.644 289.909C215.644 290.734 215.776 291.432 216.042 292.002C216.31 292.572 216.675 293.005 217.135 293.3C217.599 293.591 218.123 293.737 218.706 293.737C219.035 293.737 219.344 293.691 219.636 293.598L218.189 291.699ZM225.066 295V293.886L228.512 290.317C228.876 289.929 229.179 289.589 229.421 289.298C229.663 289.003 229.844 288.723 229.963 288.457C230.083 288.192 230.142 287.911 230.142 287.612C230.142 287.105 229.968 286.704 229.62 286.409C229.272 286.111 228.84 285.962 228.323 285.962C227.773 285.962 227.333 286.127 227.005 286.459C226.68 286.787 226.52 287.224 226.523 287.771H225.056C225.056 287.152 225.199 286.61 225.484 286.146C225.769 285.682 226.16 285.322 226.657 285.067C227.154 284.808 227.719 284.679 228.353 284.679C228.992 284.679 229.556 284.807 230.043 285.062C230.533 285.314 230.916 285.658 231.191 286.096C231.466 286.53 231.604 287.021 231.604 287.567C231.604 287.945 231.533 288.315 231.39 288.676C231.251 289.037 231.007 289.44 230.659 289.884C230.315 290.325 229.831 290.86 229.208 291.49L227.184 293.608V293.683H231.768V295H225.066Z" fill="white"/>
<path d="M151.418 289.909C151.418 290.847 151.266 291.674 150.961 292.39C150.659 293.103 150.245 293.681 149.718 294.125L151.09 295.915H149.519L148.649 294.786C148.092 295.022 147.487 295.139 146.834 295.139C145.953 295.139 145.166 294.93 144.473 294.513C143.783 294.092 143.24 293.49 142.842 292.708C142.444 291.926 142.246 290.993 142.246 289.909C142.246 288.822 142.444 287.889 142.842 287.11C143.24 286.328 143.783 285.728 144.473 285.31C145.166 284.889 145.953 284.679 146.834 284.679C147.713 284.679 148.497 284.889 149.186 285.31C149.879 285.728 150.424 286.328 150.822 287.11C151.219 287.889 151.418 288.822 151.418 289.909ZM146.317 291.699H147.829L148.808 292.977C149.146 292.658 149.411 292.242 149.604 291.729C149.799 291.212 149.897 290.605 149.897 289.909C149.897 289.08 149.763 288.383 149.494 287.816C149.229 287.246 148.864 286.815 148.4 286.523C147.94 286.228 147.418 286.081 146.834 286.081C146.251 286.081 145.727 286.228 145.263 286.523C144.803 286.815 144.438 287.246 144.17 287.816C143.904 288.383 143.772 289.08 143.772 289.909C143.772 290.734 143.904 291.432 144.17 292.002C144.438 292.572 144.803 293.005 145.263 293.3C145.727 293.591 146.251 293.737 146.834 293.737C147.162 293.737 147.472 293.691 147.764 293.598L146.317 291.699ZM156.774 284.818V295H155.233V286.891H155.148C155.065 287.04 154.835 287.205 154.457 287.384C154.079 287.559 153.602 287.647 153.025 287.647V286.384C153.396 286.384 153.723 286.318 154.005 286.185C154.29 286.053 154.528 285.894 154.721 285.708C154.913 285.519 155.06 285.342 155.163 285.176C155.269 285.007 155.329 284.888 155.342 284.818H156.774Z" fill="white"/>
<path d="M77.1094 215.443V7" stroke="white" stroke-width="0.5" stroke-linecap="round" stroke-linejoin="round"/>
<path d="M223.652 152.716H658.41" stroke="#231F20" stroke-width="0.53" stroke-linecap="round" stroke-linejoin="round"/>
<path d="M658.407 131.699H59.2871" stroke="white" stroke-width="0.5" stroke-linecap="round" stroke-linejoin="round"/>
<path d="M658.407 152.716H59.2871" stroke="white" stroke-width="0.5" stroke-linecap="round" stroke-linejoin="round"/>
<path d="M223.65 173.445H59.2871" stroke="white" stroke-width="0.5" stroke-linecap="round" stroke-linejoin="round"/>
<path d="M223.65 194.463H59.2871" stroke="white" stroke-width="0.5" stroke-linecap="round" stroke-linejoin="round"/>
<path d="M59 215L224 215" stroke="white" stroke-width="0.53" stroke-linecap="round" stroke-linejoin="round"/>
<path d="M223.652 69.2236H658.41" stroke="white" stroke-width="0.53" stroke-linecap="round" stroke-linejoin="round"/>
<path d="M658.407 90.241H59.2871" stroke="white" stroke-width="0.5" stroke-linecap="round" stroke-linejoin="round"/>
<path d="M59.2871 110.97H658.407" stroke="white" stroke-width="0.5" stroke-linecap="round" stroke-linejoin="round"/>
<path d="M223.65 69.2236H59.2871" stroke="white" stroke-width="0.5" stroke-linecap="round" stroke-linejoin="round"/>
<path d="M223.65 27.4775H59.2871" stroke="white" stroke-width="0.5" stroke-linecap="round" stroke-linejoin="round"/>
<path d="M223.65 48.4949H59.2871" stroke="white" stroke-width="0.5" stroke-linecap="round" stroke-linejoin="round"/>
<path d="M59 7L224 6.99999" stroke="white" stroke-width="0.53" stroke-linecap="round" stroke-linejoin="round"/>
<path d="M88.3125 215.192C89.7492 190.432 92.9101 165.672 106.415 143.215C116.185 127.093 131.415 112.409 145.782 107.803L152.104 105.788" stroke="#155EFF" stroke-width="1.5" stroke-miterlimit="3.86" stroke-linecap="square"/>
<path d="M152.1 105.788C163.922 101.746 176.023 98.5708 188.305 96.2871C214.552 91.8188 241.428 92.7001 267.326 98.8782C289.452 103.485 310.716 111.258 332.267 116.153C377.093 125.941 424.505 122.774 471.056 120.183L658.406 110.682" stroke="#155EFF" stroke-width="1.5" stroke-miterlimit="3.86" stroke-linecap="square"/>
<path opacity="0.8" d="M150 7L150 262" stroke="#155EFF" stroke-linecap="square" stroke-linejoin="round" stroke-dasharray="5 5"/>
<path opacity="0.8" d="M224 7L224 262" stroke="#155EFF" stroke-linecap="square" stroke-linejoin="round" stroke-dasharray="5 5"/>
<path opacity="0.8" d="M659 69L659 262" stroke="#155EFF" stroke-linecap="square" stroke-linejoin="round" stroke-dasharray="5 5"/>
<path opacity="0.8" d="M552 69L552 262" stroke="#155EFF" stroke-linecap="square" stroke-linejoin="round" stroke-dasharray="5 5"/>
</svg>
