<svg width="100" height="42" viewBox="0 0 100 42" fill="none" xmlns="http://www.w3.org/2000/svg">
<g clip-path="url(#clip0_38_21)">
<path d="M36.2805 15.2071L21.6463 0.268066L0 21.3047L20.122 41.7315V30.9312L10.6707 21.3047L21.6463 10.9388L26.2195 15.2071L20.4268 21.3047L20.122 30.9312L36.2805 15.2071Z" fill="#DF5D2F"/>
<path d="M43.2926 15.8169H36.8901V31.9754H43.2926V25.2681L47.8657 31.9754H55.7926L49.3901 24.0486L54.8779 15.8169H47.5609L43.2926 22.5242V15.8169Z" fill="white"/>
<path fill-rule="evenodd" clip-rule="evenodd" d="M63.4146 27.4023V31.9754H56.7073V15.8169H67.6829C69.2073 15.8169 72.064 16.8607 72.8658 20.3901C73.3737 22.6259 73.0487 27.0974 67.6829 27.0974L63.4146 27.4023ZM63.4146 23.134V20.3901C65.8536 20.1462 66.6664 21.1015 66.7683 21.6096C67.0122 22.8291 65.8536 23.134 65.2439 23.134H63.4146Z" fill="white"/>
<path d="M85.3659 21.3047V31.9754H78.9634V21.3047H73.7805V15.8169H90.5488V21.3047H85.3659Z" fill="white"/>
<path d="M93.0847 12.8663C93.0847 12.2649 93.2231 11.7067 93.5 11.1916C93.7798 10.6765 94.1658 10.2716 94.6567 9.97686C95.1512 9.67911 95.6841 9.53027 96.2554 9.53027C96.8274 9.53027 97.3585 9.67911 97.85 9.97686C98.3414 10.2716 98.7256 10.6765 99.0024 11.1916C99.2823 11.7067 99.4219 12.2649 99.4219 12.8663C99.4219 13.4529 99.2884 14.0022 99.0201 14.5143C98.7524 15.0264 98.3713 15.4387 97.8768 15.7514C97.3853 16.061 96.8451 16.2158 96.2554 16.2158C95.6689 16.2158 95.1286 16.0625 94.6347 15.7558C94.1433 15.4462 93.7622 15.0353 93.4914 14.5232C93.2201 14.0111 93.0847 13.4588 93.0847 12.8663ZM93.5981 12.8663C93.5981 13.3784 93.7176 13.8533 93.9555 14.291C94.1939 14.7257 94.517 15.0666 94.925 15.3137C95.3359 15.5608 95.7792 15.6844 96.2554 15.6844C96.7353 15.6844 97.1798 15.5593 97.5908 15.3092C98.0018 15.0562 98.3231 14.7137 98.5554 14.282C98.7908 13.8503 98.9085 13.3784 98.9085 12.8663C98.9085 12.3572 98.7908 11.8883 98.5554 11.4595C98.3231 11.0278 98.0018 10.6884 97.5908 10.4413C97.1798 10.1912 96.7353 10.0662 96.2554 10.0662C95.7792 10.0662 95.3359 10.1897 94.925 10.4369C94.514 10.681 94.1896 11.0204 93.9512 11.4551C93.7158 11.8898 93.5981 12.3602 93.5981 12.8663ZM95.5994 13.2013V14.7108H94.9695V10.9192H96.2018C96.6579 10.9192 97.0103 11.0174 97.2603 11.2139C97.5134 11.4075 97.6402 11.6903 97.6402 12.0625C97.6402 12.4287 97.4494 12.7086 97.0683 12.902C97.4317 13.0509 97.6146 13.3546 97.6176 13.8131V14.0856C97.6176 14.3416 97.6433 14.5262 97.6939 14.6394V14.7108H97.0463C97.0042 14.6036 96.9835 14.4131 96.9835 14.1391C96.9835 13.8622 96.9792 13.6985 96.9701 13.6479C96.9225 13.362 96.7274 13.2132 96.3853 13.2013H95.5994ZM95.5994 12.6297H96.2957C96.5103 12.6237 96.6829 12.5716 96.814 12.4733C96.9451 12.3751 97.0103 12.2456 97.0103 12.0848C97.0103 11.8675 96.9524 11.7141 96.8365 11.6248C96.7201 11.5325 96.5134 11.4864 96.2152 11.4864H95.5994V12.6297Z" fill="white"/>
</g>
<defs>
<clipPath id="clip0_38_21">
<rect width="100" height="42" fill="white"/>
</clipPath>
</defs>
</svg>
