<svg width="48" height="48" viewBox="0 0 48 48" fill="none" xmlns="http://www.w3.org/2000/svg">
<rect width="48" height="48" fill="#DADADA" fill-opacity="0.08"/>
<path d="M9.75519 41.7446C8.60007 41.7446 7.69247 41.0845 7.2799 40.6719C5.87726 39.0218 5.87726 37.6191 6.12478 36.7115C6.28983 35.8864 6.78487 35.1438 7.52741 34.6488C8.60008 33.8237 11.5703 31.7611 15.9432 29.9459C18.2535 25.7379 19.8212 22.355 20.8937 19.6324C19.0785 16.167 18.4184 13.3617 18.2535 11.9591C18.0884 10.804 18.171 9.64886 18.501 8.6588C19.3261 6.01858 21.1412 5.93599 21.8838 6.01858C22.0488 6.01858 24.9365 6.43115 25.4316 10.5565C25.4316 10.7215 25.7615 13.3617 23.5339 19.5498C24.9365 21.9425 26.9167 24.5828 29.9696 27.1406C32.8573 27.1406 35.9927 27.3881 39.293 28.2132C40.0356 28.3783 40.6956 28.7907 41.1907 29.3684C42.0158 30.276 42.1807 31.4311 41.7682 32.5862C41.7682 32.5862 41.6031 33.1637 41.1081 33.7413C40.2005 34.9789 38.4679 35.3915 37.0652 34.6489C33.93 32.9988 31.2896 31.2662 29.1444 29.451C24.7715 29.616 20.8937 30.6061 17.7583 31.8437C16.3557 34.4014 14.6231 37.2067 12.6428 40.3419C12.2302 40.9194 11.7352 41.4146 11.0751 41.6621C10.4977 41.662 10.0852 41.7446 9.75519 41.7446ZM13.798 33.4112C11.3227 34.7314 9.59014 35.8865 8.93005 36.464C8.68253 36.7115 8.43502 36.959 8.43502 37.2066C8.26996 37.784 8.51748 38.3617 9.09511 39.0218C9.09511 39.0218 9.59014 39.4343 10.0852 39.2693C10.2502 39.1868 10.4151 39.1042 10.4977 38.8567C11.6529 36.959 12.808 35.1438 13.798 33.4112ZM33.0224 29.4508C34.5075 30.4409 36.1576 31.5135 37.9728 32.4212C38.3028 32.5862 38.7154 32.5036 38.9629 32.1736C39.2104 31.8437 39.2929 31.5961 39.2929 31.5961C39.4579 31.1836 39.4579 31.0187 39.2104 30.771C39.0454 30.6059 38.7978 30.441 38.4679 30.3584C36.6528 29.8634 34.8376 29.6159 33.0224 29.4508ZM22.2963 22.1077C21.4712 24.0053 20.4811 26.1505 19.1611 28.6258C21.3889 27.9657 23.7816 27.3882 26.4218 27.1407C24.7716 25.408 23.369 23.6752 22.2963 22.1077ZM21.4713 8.24623C21.1413 8.24623 20.8938 8.5762 20.6462 9.31889C20.3987 9.97898 20.3987 10.7215 20.4811 11.5467C20.6462 12.5367 20.9761 14.1869 21.8838 16.3321C23.1213 12.3717 22.9564 10.7215 22.9564 10.7215C22.7089 8.49374 21.5538 8.24623 21.4713 8.24623Z" fill="#F63B24"/>
</svg>
